<svg width="89" height="28" viewBox="0 0 89 28" fill="none" xmlns="http://www.w3.org/2000/svg">
<path d="M10.0544 24.8768C10.4165 25.2724 11.0939 25.0562 11.0939 24.5198V5.13883C9.98453 4.02943 8.77812 3.55407 7.52568 3.27778C5.30634 2.78817 3.33084 2.89445 2.12188 3.05179C0.782598 3.22609 0 4.41696 0 5.58881V20.1891C0 21.7681 1.31833 23.0128 2.849 22.9623C4.11597 22.9206 5.87445 22.9654 7.46737 23.3504C8.68206 23.6438 9.45465 24.2214 10.0544 24.8768Z" fill="#7B542C"/>
<path d="M14.3524 24.8768C13.9903 25.2724 13.3129 25.0562 13.3129 24.5198V5.13883C14.4223 4.02943 15.6286 3.55407 16.8811 3.27778C19.1005 2.78817 21.0759 2.89445 22.2848 3.05179C23.6242 3.22609 24.4068 4.41696 24.4068 5.58881V20.1891C24.4068 21.7681 23.0885 23.0128 21.5578 22.9623C20.2908 22.9206 18.5323 22.9654 16.9395 23.3504C15.7247 23.6438 14.9521 24.2214 14.3524 24.8768Z" fill="#7B542C"/>
<path d="M35.9507 20.526C36.3467 20.5847 36.7354 20.6727 37.1167 20.79C37.5127 20.8927 37.8647 21.0173 38.1727 21.164V22H30.8467V21.164C31.1254 21.0027 31.4187 20.8707 31.7267 20.768C32.0494 20.6653 32.3574 20.5847 32.6507 20.526V8.074C32.3134 8.01533 31.9907 7.93467 31.6827 7.832C31.3747 7.71467 31.0961 7.58267 30.8467 7.436V6.6H33.6187C34.2054 6.6 34.8727 6.57067 35.6207 6.512C36.3834 6.45333 37.0801 6.424 37.7107 6.424C38.4881 6.424 39.2434 6.50467 39.9767 6.666C40.7247 6.81267 41.3847 7.06933 41.9567 7.436C42.5434 7.80267 43.0127 8.294 43.3647 8.91C43.7167 9.51133 43.8927 10.2667 43.8927 11.176C43.8927 12.0413 43.7167 12.7893 43.3647 13.42C43.0274 14.0507 42.5727 14.5713 42.0007 14.982C41.4287 15.3927 40.7687 15.7007 40.0207 15.906C39.2727 16.0967 38.5027 16.192 37.7107 16.192C37.6374 16.192 37.5201 16.192 37.3587 16.192C37.1974 16.192 37.0214 16.192 36.8307 16.192C36.6547 16.1773 36.4787 16.17 36.3027 16.17C36.1414 16.1553 36.0241 16.1407 35.9507 16.126V20.526ZM37.1387 7.854C36.8454 7.854 36.6107 7.86867 36.4347 7.898C36.2734 7.91267 36.1121 7.942 35.9507 7.986V14.674C36.0827 14.718 36.2807 14.7473 36.5447 14.762C36.8087 14.762 37.0214 14.762 37.1827 14.762C37.5787 14.762 37.9601 14.696 38.3267 14.564C38.6934 14.432 39.0161 14.2267 39.2947 13.948C39.5881 13.6693 39.8227 13.31 39.9987 12.87C40.1747 12.43 40.2627 11.902 40.2627 11.286C40.2627 10.1127 39.9767 9.24733 39.4047 8.69C38.8327 8.13267 38.0774 7.854 37.1387 7.854ZM54.159 18.81C54.159 19.1327 54.159 19.4113 54.159 19.646C54.1737 19.8807 54.1957 20.13 54.225 20.394L55.743 20.614V21.384C55.567 21.472 55.325 21.56 55.017 21.648C54.7237 21.736 54.4083 21.824 54.071 21.912C53.7483 21.9853 53.4257 22.044 53.103 22.088C52.7803 22.1467 52.4943 22.1907 52.245 22.22H51.497C51.3503 21.8827 51.2623 21.5453 51.233 21.208C51.2037 20.8707 51.1817 20.46 51.167 19.976H51.057C50.9837 20.2693 50.859 20.5553 50.683 20.834C50.507 21.098 50.2797 21.34 50.001 21.56C49.737 21.7653 49.4217 21.934 49.055 22.066C48.6883 22.198 48.2777 22.264 47.823 22.264C47.339 22.264 46.8917 22.1907 46.481 22.044C46.0703 21.8973 45.711 21.692 45.403 21.428C45.095 21.164 44.853 20.8487 44.677 20.482C44.501 20.1007 44.413 19.6753 44.413 19.206C44.413 18.546 44.5377 18.0033 44.787 17.578C45.0363 17.1527 45.425 16.808 45.953 16.544C46.4957 16.2653 47.185 16.06 48.021 15.928C48.8717 15.796 49.8983 15.7007 51.101 15.642C51.2183 14.3807 51.167 13.4567 50.947 12.87C50.727 12.2833 50.2503 11.99 49.517 11.99C49.0623 11.99 48.6443 12.0633 48.263 12.21L47.229 14.85H46.261C46.1437 14.674 46.0263 14.476 45.909 14.256C45.8063 14.0213 45.7037 13.7793 45.601 13.53C45.513 13.266 45.4323 13.002 45.359 12.738C45.3003 12.474 45.2563 12.2173 45.227 11.968C45.7843 11.5867 46.503 11.286 47.383 11.066C48.263 10.846 49.1943 10.736 50.177 10.736C51.013 10.736 51.695 10.8313 52.223 11.022C52.751 11.198 53.1617 11.4473 53.455 11.77C53.763 12.078 53.9757 12.4447 54.093 12.87C54.2103 13.2953 54.269 13.75 54.269 14.234C54.269 15.114 54.247 15.9133 54.203 16.632C54.1737 17.336 54.159 18.062 54.159 18.81ZM49.209 20.504C49.517 20.504 49.781 20.4453 50.001 20.328C50.221 20.2107 50.4043 20.0713 50.551 19.91C50.7123 19.7487 50.8297 19.5727 50.903 19.382C50.991 19.1913 51.057 19.0227 51.101 18.876V16.676C50.4117 16.6907 49.847 16.7347 49.407 16.808C48.967 16.8813 48.6223 17.006 48.373 17.182C48.1237 17.3433 47.9477 17.556 47.845 17.82C47.757 18.0693 47.713 18.3773 47.713 18.744C47.713 19.3013 47.845 19.734 48.109 20.042C48.373 20.35 48.7397 20.504 49.209 20.504ZM61.2131 10.736C62.1664 10.736 62.9584 10.8387 63.5891 11.044C64.2198 11.2347 64.6964 11.4767 65.0191 11.77C65.7084 11.022 66.5004 10.5013 67.3951 10.208C67.4978 10.2813 67.6004 10.3913 67.7031 10.538C67.8058 10.67 67.8938 10.8167 67.9671 10.978C68.0404 11.1393 68.0991 11.3007 68.1431 11.462C68.1871 11.6233 68.2091 11.7553 68.2091 11.858L67.9231 12.386H65.6131C65.7744 12.5913 65.9211 12.8627 66.0531 13.2C66.1998 13.5227 66.2731 13.9113 66.2731 14.366C66.2731 14.85 66.1704 15.3047 65.9651 15.73C65.7598 16.1553 65.4444 16.5367 65.0191 16.874C64.6084 17.1967 64.0804 17.4533 63.4351 17.644C62.8044 17.8347 62.0638 17.93 61.2131 17.93C60.9638 17.93 60.7364 17.93 60.5311 17.93C60.3404 17.9153 60.1718 17.8933 60.0251 17.864C59.9664 17.952 59.9004 18.062 59.8271 18.194C59.7684 18.3113 59.7391 18.4287 59.7391 18.546C59.7391 18.7953 59.9151 18.9933 60.2671 19.14C60.6191 19.2867 61.0664 19.4187 61.6091 19.536C62.1518 19.6533 62.7311 19.7853 63.3471 19.932C63.9778 20.0787 64.5644 20.2767 65.1071 20.526C65.6498 20.7607 66.1044 21.076 66.4711 21.472C66.8378 21.8533 67.0284 22.352 67.0431 22.968C67.0578 23.5547 66.9111 24.0753 66.6031 24.53C66.2951 24.9847 65.8698 25.366 65.3271 25.674C64.7991 25.9967 64.1684 26.2387 63.4351 26.4C62.7164 26.576 61.9464 26.664 61.1251 26.664C60.1571 26.664 59.3284 26.5833 58.6391 26.422C57.9644 26.2753 57.4144 26.07 56.9891 25.806C56.5638 25.542 56.2484 25.2413 56.0431 24.904C55.8524 24.5667 55.7571 24.2147 55.7571 23.848C55.7571 23.4373 55.8378 23.0853 55.9991 22.792C56.1604 22.4987 56.3878 22.242 56.6811 22.022C56.9744 21.802 57.3118 21.6187 57.6931 21.472C58.0891 21.3253 58.5218 21.1933 58.9911 21.076C58.7711 21.0173 58.5584 20.944 58.3531 20.856C58.1478 20.768 57.9644 20.6653 57.8031 20.548C57.6418 20.416 57.5098 20.2693 57.4071 20.108C57.3044 19.932 57.2531 19.734 57.2531 19.514C57.2531 19.3233 57.3118 19.14 57.4291 18.964C57.5464 18.7733 57.7004 18.6047 57.8911 18.458C58.0818 18.2967 58.2871 18.1573 58.5071 18.04C58.7271 17.908 58.9471 17.798 59.1671 17.71C58.2431 17.5047 57.5098 17.1087 56.9671 16.522C56.4244 15.9207 56.1531 15.158 56.1531 14.234C56.1531 13.134 56.6078 12.276 57.5171 11.66C58.4264 11.044 59.6584 10.736 61.2131 10.736ZM63.9851 23.672C63.9851 23.276 63.8604 22.9533 63.6111 22.704C63.3764 22.4693 63.0684 22.2713 62.6871 22.11C62.3058 21.9633 61.8731 21.8387 61.3891 21.736C60.9198 21.6187 60.4504 21.4867 59.9811 21.34C59.5998 21.6333 59.3284 21.9267 59.1671 22.22C59.0058 22.5133 58.9251 22.8653 58.9251 23.276C58.9251 23.9507 59.1524 24.4713 59.6071 24.838C60.0764 25.2193 60.7291 25.41 61.5651 25.41C62.3864 25.41 62.9951 25.234 63.3911 24.882C63.7871 24.5447 63.9851 24.1413 63.9851 23.672ZM59.3211 14.344C59.3211 15.1067 59.4458 15.686 59.6951 16.082C59.9591 16.478 60.4651 16.676 61.2131 16.676C61.9318 16.676 62.4231 16.478 62.6871 16.082C62.9658 15.6713 63.1051 15.092 63.1051 14.344C63.1051 13.552 62.9658 12.9653 62.6871 12.584C62.4084 12.188 61.9171 11.99 61.2131 11.99C60.4798 11.99 59.9811 12.1807 59.7171 12.562C59.4531 12.9433 59.3211 13.5373 59.3211 14.344ZM77.8551 20.152C77.7377 20.4013 77.5471 20.658 77.2831 20.922C77.0337 21.1713 76.7184 21.3987 76.3371 21.604C75.9704 21.7947 75.5377 21.9487 75.0391 22.066C74.5551 22.198 74.0271 22.264 73.4551 22.264C72.5457 22.264 71.7391 22.132 71.0351 21.868C70.3311 21.5893 69.7444 21.2007 69.2751 20.702C68.8057 20.1887 68.4464 19.58 68.1971 18.876C67.9624 18.172 67.8451 17.38 67.8451 16.5C67.8451 14.6227 68.3364 13.1927 69.3191 12.21C70.3017 11.2273 71.6657 10.736 73.4111 10.736C74.1591 10.736 74.8557 10.8387 75.5011 11.044C76.1611 11.2493 76.7037 11.5867 77.1291 12.056C77.5691 12.5253 77.8697 13.1413 78.0311 13.904C78.2071 14.6667 78.1997 15.598 78.0091 16.698H71.2551C71.2697 17.8567 71.5631 18.7807 72.1351 19.47C72.7217 20.1593 73.5797 20.504 74.7091 20.504C75.1931 20.504 75.6917 20.4307 76.2051 20.284C76.7331 20.1373 77.1437 19.9467 77.4371 19.712L77.8551 20.152ZM73.3231 11.99C73.0297 11.99 72.7657 12.0413 72.5311 12.144C72.3111 12.2467 72.1131 12.4373 71.9371 12.716C71.7757 12.98 71.6437 13.3467 71.5411 13.816C71.4384 14.2707 71.3651 14.85 71.3211 15.554H74.8631C74.9657 14.41 74.8997 13.53 74.6651 12.914C74.4304 12.298 73.9831 11.99 73.3231 11.99ZM84.6995 13.53C84.5235 13.618 84.3181 13.7647 84.0835 13.97C83.8488 14.1753 83.6361 14.5127 83.4455 14.982V20.614C83.7388 20.6433 84.0321 20.702 84.3255 20.79C84.6188 20.8633 84.9121 20.9807 85.2055 21.142V22H78.8255V21.142C79.0895 20.9953 79.3388 20.8853 79.5735 20.812C79.8081 20.7387 80.0428 20.6727 80.2775 20.614V12.562L78.8255 12.386V11.528C79.0601 11.4253 79.3461 11.33 79.6835 11.242C80.0355 11.154 80.3948 11.0807 80.7615 11.022C81.1281 10.9487 81.4801 10.89 81.8175 10.846C82.1695 10.802 82.4628 10.7653 82.6975 10.736H83.4455V13.662H83.5335C83.6508 13.3393 83.8195 13.002 84.0395 12.65C84.2741 12.298 84.5455 11.9753 84.8535 11.682C85.1615 11.3887 85.4988 11.154 85.8655 10.978C86.2321 10.802 86.6135 10.7213 87.0095 10.736C87.1708 10.9413 87.3101 11.2347 87.4275 11.616C87.5448 11.9827 87.6401 12.3347 87.7135 12.672V13.53H84.6995Z" fill="#7B542C"/>
</svg>
